<!DOCTYPE svg PUBLIC "-//W3C//DTD SVG 1.1//EN" "http://www.w3.org/Graphics/SVG/1.1/DTD/svg11.dtd">
<svg class="tw-animated-glitch-logo__svg" overflow="visible" width="30px" height="30px" version="1.1" viewBox="0 0 30 30" x="0px" y="0px"><g class="tw-animated-glitch-logo__body tw-animated-glitch-logo__body--mouse-leave"><path d="M4,7 L5.56799,3 L27,3 L27,18 L21,24 L16,24 L12.88599,27 L9,27 L9,24 L4,24 L4,7 Z M21,20 L25,16 L25,5 L8,5 L8,20 L12,20 L12,23 L15,20 L21,20 Z"></path><g class="tw-animated-glitch-logo__eyes tw-animated-glitch-logo__eyes--mouse-leave"><polygon class="tw-animated-glitch-logo__right-eye" points="21 9 19 9 19 15 21 15"></polygon><polygon class="tw-animated-glitch-logo__left-eye" points="16 9 14 9 14 15 16 15"></polygon></g></g></svg>